<svg width="23" height="22" viewBox="0 0 23 22" fill="none" xmlns="http://www.w3.org/2000/svg">
<path d="M11.5005 0.0909119C8.53782 0.0909119 8.16602 0.103867 7.00241 0.156821C5.84109 0.210003 5.04838 0.393866 4.35477 0.663639C3.63729 0.942276 3.02867 1.315 2.42233 1.92159C1.81553 2.52796 1.44281 3.13659 1.16327 3.85387C0.892826 4.54773 0.708741 5.34068 0.65647 6.50159C0.604426 7.66523 0.59079 8.03727 0.59079 11C0.59079 13.9627 0.603971 14.3334 0.656697 15.497C0.710105 16.6584 0.893963 17.4511 1.1635 18.1448C1.44235 18.8623 1.81507 19.4709 2.42164 20.0773C3.02776 20.6841 3.63638 21.0577 4.3534 21.3364C5.04747 21.6061 5.8404 21.79 7.0015 21.8432C8.16511 21.8961 8.53669 21.9091 11.4991 21.9091C14.462 21.9091 14.8326 21.8961 15.9962 21.8432C17.1576 21.79 17.9512 21.6061 18.6452 21.3364C19.3625 21.0577 19.9702 20.6841 20.5763 20.0773C21.1831 19.4709 21.5558 18.8623 21.8354 18.145C22.1035 17.4511 22.2876 16.6582 22.3422 15.4973C22.3944 14.3336 22.4081 13.9627 22.4081 11C22.4081 8.03727 22.3944 7.66546 22.3422 6.50182C22.2876 5.34046 22.1035 4.54773 21.8354 3.85409C21.5558 3.13659 21.1831 2.52796 20.5763 1.92159C19.9695 1.31478 19.3627 0.942048 18.6446 0.663639C17.9491 0.393866 17.156 0.210003 15.9946 0.156821C14.831 0.103867 14.4606 0.0909119 11.497 0.0909119H11.5005ZM10.5219 2.05682C10.8123 2.05637 11.1364 2.05682 11.5005 2.05682C14.4131 2.05682 14.7583 2.06728 15.9085 2.11955C16.9721 2.16818 17.5494 2.34591 17.9339 2.49523C18.443 2.69296 18.8059 2.92932 19.1875 3.31114C19.5693 3.69296 19.8057 4.05659 20.0038 4.56568C20.1532 4.94977 20.3311 5.52705 20.3795 6.59068C20.4318 7.74068 20.4431 8.08614 20.4431 10.9975C20.4431 13.9089 20.4318 14.2543 20.3795 15.4043C20.3309 16.468 20.1532 17.0452 20.0038 17.4293C19.8061 17.9384 19.5693 18.3009 19.1875 18.6825C18.8057 19.0643 18.4432 19.3007 17.9339 19.4984C17.5498 19.6484 16.9721 19.8257 15.9085 19.8743C14.7585 19.9266 14.4131 19.938 11.5005 19.938C8.58759 19.938 8.24238 19.9266 7.09241 19.8743C6.02881 19.8252 5.45155 19.6475 5.06679 19.4982C4.55771 19.3005 4.19409 19.0641 3.81228 18.6823C3.43048 18.3005 3.19412 17.9377 2.99594 17.4284C2.84663 17.0443 2.66868 16.467 2.62027 15.4034C2.568 14.2534 2.55755 13.908 2.55755 10.9948C2.55755 8.08159 2.568 7.73796 2.62027 6.58796C2.66891 5.52432 2.84663 4.94705 2.99594 4.5625C3.19367 4.05341 3.43048 3.68977 3.81228 3.30796C4.19409 2.92614 4.55771 2.68978 5.06679 2.49159C5.45132 2.34159 6.02881 2.16432 7.09241 2.11546C8.09874 2.07 8.48873 2.05637 10.5219 2.05409V2.05682ZM17.3235 3.86818C16.6008 3.86818 16.0144 4.45387 16.0144 5.17682C16.0144 5.89955 16.6008 6.48591 17.3235 6.48591C18.0462 6.48591 18.6325 5.89955 18.6325 5.17682C18.6325 4.45409 18.0462 3.86773 17.3235 3.86773V3.86818ZM11.5005 5.39773C8.40669 5.39773 5.89836 7.90614 5.89836 11C5.89836 14.0939 8.40669 16.6011 11.5005 16.6011C14.5942 16.6011 17.1017 14.0939 17.1017 11C17.1017 7.90614 14.594 5.39773 11.5002 5.39773H11.5005ZM11.5005 7.36364C13.5086 7.36364 15.1367 8.99159 15.1367 11C15.1367 13.0082 13.5086 14.6364 11.5005 14.6364C9.49211 14.6364 7.86421 13.0082 7.86421 11C7.86421 8.99159 9.49211 7.36364 11.5005 7.36364Z" fill="#844631"/>
</svg>
