<svg width="181" height="131" viewBox="0 0 181 131" fill="none" xmlns="http://www.w3.org/2000/svg">
<path d="M181.478 0.179792C181.478 0.179792 142.258 -3.54236 137.803 22.8849C137.61 23.2571 131.606 68.6673 118.629 79.8338C118.145 80.2991 108.751 92.1169 90.9327 88.5808C90.7391 88.5808 39.8012 81.881 16.947 108.867C16.947 108.867 5.3262 124.127 4.26096 130.92C4.06728 130.734 181.478 130.92 181.478 130.92V0.179792Z" fill="white"/>
<path d="M181.478 10.7134C179.076 10.6575 176.655 10.732 174.254 10.8623C171.852 10.9925 169.451 11.2159 167.068 11.5136C162.304 12.1278 157.578 13.0583 153.027 14.5472C150.76 15.2916 148.533 16.1849 146.422 17.283C144.311 18.381 142.316 19.6838 140.554 21.2284C139.682 22.0101 138.869 22.8476 138.133 23.7595C137.397 24.6714 136.757 25.6392 136.234 26.6628C136.099 26.9047 135.983 27.1839 135.847 27.4444C135.712 27.705 135.615 27.9655 135.498 28.2447C135.44 28.375 135.382 28.5052 135.344 28.6355L135.227 29.045C135.189 29.1752 135.15 29.3241 135.13 29.4544L135.034 29.8824C134.801 31.0177 134.646 32.153 134.491 33.3068C134.201 35.5959 133.949 37.9037 133.678 40.1928C133.426 42.5005 133.155 44.7896 132.864 47.0974C132.283 51.6942 131.606 56.2725 130.734 60.8321C130.288 63.1026 129.824 65.3731 129.243 67.6436C128.681 69.8955 128.061 72.1474 127.306 74.3435C126.55 76.5582 125.718 78.7356 124.672 80.8387C123.645 82.9417 122.425 84.9889 120.856 86.7941L120.837 86.8127C120.721 86.9244 120.604 87.0919 120.488 87.2594L120.12 87.7433C119.869 88.0782 119.636 88.3946 119.365 88.7296C118.842 89.381 118.3 89.9952 117.719 90.5721C116.557 91.7446 115.24 92.8054 113.845 93.7173C112.451 94.6292 110.94 95.3923 109.39 96.025C107.841 96.6578 106.214 97.1417 104.587 97.5325C101.314 98.2955 97.9246 98.5747 94.5739 98.5561C91.2039 98.5375 87.8726 98.2025 84.5607 97.6814L84.7931 97.6069C84.7543 97.6628 84.5994 97.7 84.6188 97.6814H84.58C84.5607 97.6814 84.5413 97.6814 84.5413 97.6814H84.4638H84.3282L84.0571 97.6628L83.5148 97.6256L82.4302 97.5511C81.7136 97.4953 80.9969 97.4581 80.261 97.4208C78.8277 97.3464 77.3751 97.272 75.9419 97.2347C73.0561 97.1417 70.1702 97.1231 67.2844 97.1789C64.3986 97.2347 61.5127 97.365 58.6463 97.5883C55.7604 97.7931 52.894 98.0908 50.0469 98.5003C44.3333 99.3005 38.6779 100.51 33.2355 102.371C30.524 103.302 27.8512 104.381 25.314 105.684C22.7574 106.968 20.3364 108.476 18.0703 110.206L17.9929 109.983C18.2253 110.113 18.0703 110.188 18.1091 110.169C18.1091 110.188 18.0897 110.188 18.0897 110.188L18.0703 110.206L18.051 110.225L18.0122 110.262L17.9348 110.337L17.7798 110.486L17.4506 110.783L16.792 111.36L15.4944 112.514C14.6228 113.296 13.7706 114.077 12.9185 114.859C11.2141 116.441 9.56779 118.06 7.96024 119.754C6.37207 121.429 4.82263 123.178 3.42813 125.002C2.73089 125.914 2.07237 126.863 1.47197 127.849C0.890927 128.836 0.348624 129.859 0 130.939C0.348624 129.841 0.87156 128.817 1.4526 127.831C2.03364 126.844 2.69215 125.895 3.37003 124.965C4.74516 123.122 6.27523 121.354 7.84404 119.661C9.43221 117.967 11.0785 116.329 12.7635 114.729C13.5963 113.929 14.4485 113.128 15.3201 112.347L16.6177 111.174L17.2762 110.597L17.6055 110.299L17.7604 110.151L17.8379 110.076L17.8767 110.039L17.896 110.02C17.896 110.02 17.896 110.02 17.8767 110.039C17.9154 110.002 17.7604 110.095 17.9929 110.206L17.9154 109.983C20.1621 108.215 22.6024 106.689 25.159 105.386C27.7156 104.065 30.3884 102.967 33.1193 102.018C38.581 100.138 44.2559 98.8911 49.9888 98.0536C55.7217 97.2161 61.5127 96.7881 67.3038 96.6764C70.1896 96.6206 73.0948 96.6392 75.9806 96.7136C77.4332 96.7509 78.8665 96.8253 80.3191 96.8997C81.0357 96.937 81.7717 96.9742 82.4883 97.03L83.5729 97.1045L84.1152 97.1417L84.3863 97.1603H84.5219H84.58H84.5994C84.6381 97.1603 84.4832 97.1789 84.4638 97.2347L84.6962 97.1603C87.9888 97.6814 91.3007 97.9978 94.632 98.0164C97.9439 98.0164 101.295 97.7558 104.51 96.9928C106.117 96.6206 107.705 96.1367 109.216 95.5225C110.746 94.9084 112.199 94.1453 113.574 93.252C114.93 92.3587 116.208 91.3351 117.351 90.1999C117.932 89.6229 118.455 89.0274 118.958 88.3946C119.21 88.0782 119.462 87.7619 119.694 87.4269L120.062 86.943C120.178 86.7755 120.314 86.608 120.469 86.4405L120.45 86.4591C121.96 84.7097 123.18 82.6997 124.188 80.6339C125.214 78.5495 126.047 76.3907 126.802 74.2132C127.558 72.0172 128.158 69.7839 128.739 67.5506C129.301 65.3173 129.785 63.0468 130.23 60.7763C131.102 56.2353 131.799 51.657 132.4 47.0788C132.709 44.7896 132.981 42.4819 133.252 40.1928C133.523 37.9037 133.794 35.5959 134.104 33.3068C134.259 32.153 134.433 31.0177 134.666 29.8638L134.762 29.4358C134.801 29.2869 134.821 29.1566 134.879 29.0077L135.014 28.5797C135.053 28.4308 135.13 28.3005 135.169 28.1702C135.285 27.8911 135.382 27.6305 135.518 27.37C135.653 27.1094 135.77 26.8303 135.905 26.5883C136.448 25.5461 137.106 24.5598 137.861 23.6292C138.617 22.7173 139.45 21.8612 140.34 21.0796C142.142 19.5163 144.156 18.2135 146.286 17.1155C148.417 16.036 150.664 15.1427 152.949 14.4169C157.539 12.9653 162.284 12.0533 167.068 11.495C169.451 11.2159 171.852 11.0111 174.273 10.8995C176.655 10.6948 179.076 10.6389 181.478 10.7134Z" fill="#844631"/>
</svg>
