<svg width="309" height="233" viewBox="0 0 309 233" fill="none" xmlns="http://www.w3.org/2000/svg">
<path d="M0 231.751C0 231.751 66.7939 238.348 74.3803 191.51C74.7102 190.85 84.9354 110.367 107.035 90.5763C107.86 89.7517 123.857 68.8063 154.203 75.0734C154.533 75.0734 241.283 86.948 280.204 39.12C280.204 39.12 299.995 12.0724 301.809 0.032959C302.139 0.362807 0 0.032959 0 0.032959V231.751Z" fill="#B77E65"/>
<path d="M0 213.049C4.09009 213.148 8.21317 213.016 12.3033 212.785C16.3934 212.554 20.4835 212.158 24.5406 211.631C32.6548 210.542 40.703 208.893 48.4544 206.254C52.3136 204.935 56.1069 203.351 59.7022 201.405C63.2975 199.459 66.6949 197.15 69.6965 194.413C71.1808 193.027 72.5662 191.543 73.8196 189.927C75.073 188.31 76.1615 186.595 77.0521 184.781C77.283 184.352 77.4809 183.857 77.7118 183.396C77.9427 182.934 78.1076 182.472 78.3055 181.977C78.4045 181.746 78.5034 181.515 78.5694 181.285L78.7673 180.559C78.8333 180.328 78.8992 180.064 78.9322 179.833L79.0971 179.075C79.493 177.062 79.7568 175.05 80.0207 173.005C80.5155 168.948 80.9443 164.858 81.4061 160.801C81.8349 156.711 82.2967 152.654 82.7914 148.564C83.781 140.416 84.9354 132.302 86.4197 124.221C87.1784 120.197 87.97 116.173 88.9595 112.148C89.9161 108.157 90.9716 104.166 92.258 100.274C93.5444 96.3487 94.9627 92.4894 96.7439 88.7622C98.4921 85.0349 100.57 81.4065 103.242 78.207L103.275 78.174C103.473 77.9761 103.671 77.6793 103.869 77.3824L104.495 76.5248C104.924 75.9311 105.32 75.3703 105.782 74.7766C106.672 73.6221 107.596 72.5336 108.585 71.5111C110.564 69.4331 112.807 67.5529 115.182 65.9367C117.557 64.3204 120.13 62.968 122.769 61.8465C125.408 60.7251 128.178 59.8675 130.949 59.1748C136.523 57.8224 142.296 57.3276 148.002 57.3606C153.741 57.3936 159.415 57.9873 165.055 58.9109L164.593 59.0758C164.659 58.9769 164.923 58.9109 164.89 58.9439H164.956C164.989 58.9439 165.022 58.9439 165.022 58.9439H165.154H165.385L165.847 58.9769L166.77 59.0428L168.617 59.1748C169.838 59.2737 171.058 59.3397 172.312 59.4057C174.753 59.5376 177.226 59.6695 179.667 59.7355C184.582 59.9004 189.497 59.9334 194.411 59.8345C199.326 59.7355 204.241 59.5046 209.123 59.1088C214.037 58.746 218.919 58.2182 223.768 57.4925C233.498 56.0742 243.13 53.9302 252.398 50.6317C257.016 48.9825 261.568 47.0693 265.889 44.7604C270.243 42.4845 274.366 39.8127 278.225 36.7451L278.357 37.1409C277.961 36.91 278.225 36.7781 278.159 36.8111C278.159 36.7781 278.192 36.7781 278.192 36.7781L278.225 36.7451L278.258 36.7121L278.324 36.6461L278.456 36.5142L278.72 36.2503L279.281 35.7226L280.402 34.7L282.612 32.655C284.097 31.2696 285.548 29.8842 286.999 28.4989C289.902 25.6952 292.706 22.8255 295.443 19.8239C298.148 16.8552 300.787 13.7547 303.162 10.5222C304.349 8.9059 305.471 7.22368 306.493 5.47548C307.483 3.72728 308.406 1.91312 309 0C308.406 1.9461 307.516 3.76027 306.526 5.50847C305.537 7.25666 304.415 8.93889 303.261 10.5881C300.919 13.8536 298.313 16.9872 295.641 19.9888C292.936 22.9904 290.133 25.8931 287.263 28.7298C285.845 30.1481 284.393 31.5665 282.909 32.9518L280.699 35.0299L279.578 36.0524L279.017 36.5802L278.753 36.844L278.621 36.976L278.555 37.042L278.522 37.0749C278.522 37.0749 278.522 37.0749 278.555 37.042C278.489 37.1079 278.753 36.943 278.357 36.7451L278.489 37.1409C274.663 40.2745 270.507 42.9792 266.153 45.2882C261.799 47.6301 257.247 49.5762 252.596 51.2584C243.295 54.5899 233.63 56.7999 223.867 58.2842C214.103 59.7685 204.241 60.5271 194.378 60.7251C189.464 60.824 184.516 60.791 179.601 60.6591C177.127 60.5931 174.687 60.4612 172.213 60.3292C170.992 60.2633 169.739 60.1973 168.518 60.0983L166.671 59.9664L165.748 59.9004L165.286 59.8674H165.055H164.956H164.923C164.857 59.8674 165.121 59.8345 165.154 59.7355L164.758 59.8674C159.151 58.9439 153.51 58.3831 147.837 58.3502C142.197 58.3502 136.49 58.8119 131.015 60.1643C128.277 60.824 125.572 61.6816 123 62.7701C120.394 63.8586 117.92 65.211 115.578 66.7943C113.269 68.3775 111.092 70.1917 109.146 72.2038C108.157 73.2263 107.266 74.2818 106.408 75.4033C105.98 75.964 105.551 76.5248 105.155 77.1185L104.528 77.9761C104.33 78.273 104.099 78.5698 103.836 78.8667L103.869 78.8337C101.296 81.9343 99.2178 85.4967 97.5026 89.158C95.7544 92.8523 94.336 96.6785 93.0496 100.538C91.7632 104.43 90.7407 108.388 89.7512 112.346C88.7946 116.304 87.97 120.329 87.2114 124.353C85.7271 132.401 84.5396 140.515 83.5171 148.63C82.9893 152.687 82.5275 156.777 82.0658 160.834C81.604 164.891 81.1422 168.981 80.6144 173.038C80.3506 175.083 80.0537 177.095 79.6579 179.141L79.493 179.899C79.427 180.163 79.394 180.394 79.295 180.658L79.0642 181.417C78.9982 181.68 78.8662 181.911 78.8003 182.142C78.6024 182.637 78.4375 183.099 78.2066 183.561C77.9757 184.022 77.7778 184.517 77.5469 184.946C76.6233 186.793 75.5018 188.541 74.2154 190.19C72.929 191.807 71.5107 193.324 69.9934 194.709C66.9258 197.48 63.4954 199.789 59.8671 201.735C56.2388 203.648 52.4126 205.232 48.5204 206.518C40.703 209.091 32.6218 210.707 24.4746 211.697C20.4175 212.191 16.3274 212.554 12.2043 212.752C8.21317 213.082 4.09009 213.181 0 213.049Z" fill="#F2D0BE"/>
</svg>
