<svg width="221" height="169" viewBox="0 0 221 169" fill="none" xmlns="http://www.w3.org/2000/svg">
<path d="M168.312 109.819C166.139 109.069 157.52 105.922 153.173 102.924C138.633 92.2064 129.265 75.5683 129.265 56.9066C129.265 34.5725 142.681 15.1613 162.392 5.1934C163.741 4.14415 165.165 3.09491 166.664 2.04565C152.873 4.81868 139.758 10.8893 127.541 20.1827C115.25 29.4761 109.104 41.6924 109.104 56.8316C109.104 71.9708 115.25 84.1871 127.541 93.4805C135.036 99.1765 142.756 103.598 150.85 106.821H150.925C155.272 108.545 159.693 109.969 164.265 111.018C165.689 111.468 167.113 111.767 168.237 112.067C168.837 112.217 169.362 112.292 169.811 112.367" fill="#F2D0BD"/>
<path d="M145.378 9.54029C145.378 9.54029 157.07 1.97067 173.633 1.52099C173.633 1.52099 188.323 -0.202785 204.436 10.8893C220.475 21.9065 218.451 42.3669 205.336 44.6902C194.768 46.1892 191.77 34.3476 191.396 31.05C190.721 25.8037 194.843 12.4632 186.374 7.9664C177.905 3.4696 164.19 0.246886 147.177 15.9857" fill="#F2D0BD"/>
<path d="M52.6698 108.395C54.8433 107.645 63.4621 104.498 67.809 101.5C82.3487 90.7824 91.717 74.1442 91.717 55.4825C91.717 33.1484 78.3016 13.7372 58.5906 3.76935C57.2416 2.7201 55.8176 1.67083 54.3186 0.621582C68.1088 3.39461 81.2245 9.46529 93.4408 18.7587C105.732 28.0521 111.878 40.2683 111.878 55.4076C111.878 70.5468 105.732 82.7631 93.4408 92.0564C85.9461 97.7524 78.2266 102.174 70.1324 105.397H70.0574C65.7105 107.121 61.2887 108.545 56.7169 109.594C55.293 110.044 53.869 110.343 52.7448 110.643C52.1452 110.793 51.6206 110.868 51.1709 110.943" fill="#F2D0BD"/>
<path d="M75.6784 8.11619C75.6784 8.11619 63.9867 0.546595 47.4235 0.0969153C47.4235 0.0969153 32.734 -1.62686 16.6205 9.46524C0.58189 20.4824 2.60544 40.9428 15.7211 43.2662C26.2886 44.7651 29.2864 32.9235 29.6612 29.6259C30.3357 24.3796 26.2136 11.0391 34.6826 6.54233C43.1516 2.04553 56.8668 -1.17719 73.8797 14.5616" fill="#F2D0BD"/>
<path d="M23.2909 112.442C33.3077 112.442 41.428 104.322 41.428 94.3048C41.428 84.288 33.3077 76.1677 23.2909 76.1677C13.274 76.1677 5.15381 84.288 5.15381 94.3048C5.15381 104.322 13.274 112.442 23.2909 112.442Z" fill="#F2D0BD"/>
<path d="M195.893 112.442C205.91 112.442 214.03 104.322 214.03 94.3048C214.03 84.288 205.91 76.1677 195.893 76.1677C185.876 76.1677 177.756 84.288 177.756 94.3048C177.756 104.322 185.876 112.442 195.893 112.442Z" fill="#F2D0BD"/>
<path d="M26.2135 166.478C26.2135 166.328 26.2135 166.104 26.2135 165.954C26.1386 165.354 25.3142 165.429 24.4148 165.954C22.2414 167.603 18.9437 168.802 15.1964 168.802C7.92658 168.802 0.806641 161.682 0.806641 154.337C0.806641 146.992 8.15142 139.872 15.6461 139.872C19.2435 139.872 22.2414 141.146 24.3399 142.795C25.2392 143.32 26.0637 143.395 26.1386 142.87C26.1386 142.72 26.1386 142.495 26.1386 142.346H26.2885V146.767H25.8388C25.8388 146.692 25.6889 146.543 25.614 146.468C24.8645 145.343 22.9908 143.47 21.9416 142.645C19.993 141.221 17.8195 140.172 15.6461 140.172C10.7746 140.172 5.97795 147.142 5.97795 154.262C5.97795 161.382 10.5497 168.352 15.2714 168.352C17.8195 168.352 20.3677 167.228 22.3913 165.654C23.2157 164.979 24.7896 163.331 25.6889 162.206C25.7639 162.131 25.8388 161.982 25.9138 161.907H26.3634V166.329L26.2135 166.478Z" fill="#F2D0BD"/>
<path d="M48.9973 168.577V154.187H36.9309V168.577H32.1343V140.397H36.9309V153.812H48.9973V140.397H53.7938V168.577H48.9973Z" fill="#F2D0BD"/>
<path d="M72.3808 168.502H72.8305C74.0297 168.502 74.7042 167.003 74.3294 165.279L71.8562 157.71H62.6378L60.5393 164.979C60.0147 166.778 60.7641 168.502 62.0382 168.502H62.4879V168.577H56.0425V168.502H56.4922C57.7663 168.502 59.565 166.778 60.0896 164.979C62.338 157.485 64.5864 149.915 66.8348 142.346L66.7598 141.971C68.7084 141.671 70.4322 140.622 70.2823 139.722H70.8069C73.58 148.116 76.428 156.51 79.201 164.979C79.8006 166.778 81.0746 168.502 81.7492 168.502H81.974V168.577H72.3808V168.502ZM71.7063 157.335L66.9847 142.795L62.7877 157.335H71.7063Z" fill="#F2D0BD"/>
<path d="M86.1704 168.577V140.397H94.9392C99.8856 140.397 104.757 144.369 104.757 148.416C104.757 152.763 98.9113 155.911 92.9906 155.911H90.967V168.652H86.1704V168.577ZM92.9906 154.936C96.6629 154.936 100.26 151.864 100.26 147.592C100.26 144.369 97.0377 141.221 93.74 141.221H90.967V154.861H92.9906V154.936Z" fill="#F2D0BD"/>
<path d="M142.456 166.478C142.456 166.328 142.456 166.104 142.456 165.954C142.381 165.354 141.556 165.429 140.657 165.954C138.484 167.603 135.186 168.802 131.439 168.802C124.169 168.802 117.049 161.682 117.049 154.337C117.049 146.992 124.394 139.872 131.888 139.872C135.486 139.872 138.484 141.146 140.582 142.795C141.481 143.32 142.306 143.395 142.381 142.87C142.381 142.72 142.381 142.495 142.381 142.346H142.531V146.767H142.081C142.081 146.692 141.931 146.543 141.856 146.468C141.107 145.343 139.233 143.47 138.184 142.645C136.235 141.221 134.062 140.172 131.888 140.172C127.017 140.172 122.22 147.142 122.22 154.262C122.22 161.382 126.792 168.352 131.514 168.352C134.062 168.352 136.61 167.228 138.633 165.654C139.458 164.979 141.032 163.331 141.931 162.206C142.006 162.131 142.081 161.982 142.156 161.907H142.606V166.329L142.456 166.478Z" fill="#F2D0BD"/>
<path d="M165.239 168.577V154.187H153.173V168.577H148.376V140.397H153.173V153.812H165.239V140.397H170.036V168.577H165.239Z" fill="#F2D0BD"/>
<path d="M188.548 168.502H188.998C190.197 168.502 190.871 167.003 190.497 165.279L188.023 157.71H178.88L176.781 164.979C176.257 166.778 177.006 168.502 178.28 168.502H178.73V168.577H172.285V168.502H172.734C174.008 168.502 175.807 166.778 176.332 164.979C178.58 157.485 180.829 149.915 183.077 142.346L183.002 141.971C184.951 141.671 186.674 140.622 186.525 139.722H187.049C189.822 148.116 192.67 156.51 195.443 164.979C196.043 166.778 197.317 168.502 197.991 168.502H198.216V168.577H188.623L188.548 168.502ZM187.948 157.335L183.227 142.795L179.03 157.335H187.948Z" fill="#F2D0BD"/>
<path d="M202.413 168.577V140.397H211.182C216.128 140.397 221 144.369 221 148.416C221 152.763 215.154 155.911 209.233 155.911H207.21V168.652H202.413V168.577ZM209.233 154.936C212.906 154.936 216.503 151.864 216.503 147.592C216.503 144.369 213.28 141.221 209.983 141.221H207.21V154.861H209.233V154.936Z" fill="#F2D0BD"/>
</svg>
