<svg width="16" height="20" viewBox="0 0 16 20" fill="none" xmlns="http://www.w3.org/2000/svg">
<path d="M11.5 2.8H13.25C13.7141 2.8 14.1592 2.98964 14.4874 3.32721C14.8156 3.66477 15 4.12261 15 4.6V17.2C15 17.6774 14.8156 18.1352 14.4874 18.4728C14.1592 18.8104 13.7141 19 13.25 19H2.75C2.28587 19 1.84075 18.8104 1.51256 18.4728C1.18437 18.1352 1 17.6774 1 17.2V4.6C1 4.12261 1.18437 3.66477 1.51256 3.32721C1.84075 2.98964 2.28587 2.8 2.75 2.8H4.5" stroke="#844631" stroke-linecap="round" stroke-linejoin="round"/>
<path d="M10.625 1H5.37497C4.89172 1 4.49997 1.40294 4.49997 1.9V3.7C4.49997 4.19706 4.89172 4.6 5.37497 4.6H10.625C11.1082 4.6 11.5 4.19706 11.5 3.7V1.9C11.5 1.40294 11.1082 1 10.625 1Z" stroke="#844631" stroke-linecap="round" stroke-linejoin="round"/>
</svg>
